<svg width="28" height="28" fill="none" xmlns="http://www.w3.org/2000/svg">
  <path d="M26.406 21.144a3.687 3.687 0 0 0-1.931-.665c-2.555-1.673-4.229-2.93-5.206-3.906l-3.002-3.002 1.822-2.039a3.12 3.12 0 0 0 1.087.376c.28.047.466.047.653.047.373 0 .466 0 .84.326a.752.752 0 0 0-.28.607c0 .233.093.513.28.7L22.3 15.22c.233.28.606.42.98.42.373 0 .746-.14.979-.467l3.312-3.311c.28-.234.42-.607.42-.98s-.14-.7-.42-.98L25.939 8.27a.921.921 0 0 0-.653-.28c-.233 0-.466.14-.653.28-.373-.326-.373-.42-.373-.793 0-.186 0-.42-.093-.7a3.265 3.265 0 0 0-.933-1.819l-1.68-1.679c-.979-.98-1.445-1.446-2.705-2.005-2.705-1.26-5.457-1.027-9.468.792-.233.094-.327.28-.28.514a.454.454 0 0 0 .466.373h.607c2.052 0 3.125 0 4.99 1.865.817.817.841 2.07.109 2.992a.427.427 0 0 0-.248.134l-2.072 2.312-1.567-1.566C9.665 6.968 8.454 5.34 7.522 3.526a3.694 3.694 0 0 0-1.08-2.439C5.65.294 4.53-.079 3.41.014c-.14.047-.28.14-.326.234a.424.424 0 0 0 0 .466L4.39 3.046c-.28.606-.933.98-1.586.933L1.451 1.74c-.046-.14-.233-.233-.373-.233-.14-.047-.28.046-.373.186a3.674 3.674 0 0 0 .98 5.084c.578.414 1.23.644 1.89.69.007.004.014.008.022.01 1.819.933 3.452 2.146 5.177 3.871l1.706 1.668L.565 24.082c-.373.373-.56.886-.56 1.4 0 .513.187.979.56 1.352l.653.653c.373.327.84.513 1.306.513.467 0 .98-.186 1.353-.56l9.904-11.085 2.876 2.876c.979.979 2.237 2.702 3.913 5.217.06.898.428 1.736 1.078 2.386.7.7 1.633 1.073 2.612 1.073h.373c.14 0 .28-.093.373-.233a.424.424 0 0 0 0-.467l-1.352-2.285c.326-.607.933-.98 1.632-.933l1.306 2.239c.047.14.233.233.373.233.187-.047.327-.093.42-.233 1.12-1.68.653-3.918-.98-5.084ZM15.77 4.072c-1.493-1.446-2.612-1.912-3.872-2.052 2.66-.84 4.618-.793 6.577.093 1.12.467 1.493.84 2.472 1.82l1.68 1.678c.373.374.606.84.652 1.306.047.234.047.42.047.56 0 .513.047.886.606 1.446.187.187.467.28.7.28.28 0 .513-.093.653-.28l1.633 1.633c.093.093.14.186.14.326s-.047.233-.14.327l-3.312 3.311a.45.45 0 0 1-.653 0l-1.633-1.632c.187-.14.28-.373.234-.653 0-.233-.094-.513-.28-.7-.56-.56-.933-.606-1.446-.606-.14 0-.327 0-.56-.047-.513-.046-.933-.28-1.306-.653l-2.006-2.006c1.027-1.259.933-3.031-.186-4.15ZM1.125 2.952l.98 1.68c.093.14.233.233.373.233h.233c1.073.047 2.052-.513 2.519-1.446l.093-.233a.35.35 0 0 0 0-.42L4.297.994c.56.093 1.073.373 1.492.793.481.52.79 1.18.807 1.887a.48.48 0 0 0-.014.118c0 .216-.026.427-.074.63a2.86 2.86 0 0 1-1.185 1.656 2.822 2.822 0 0 1-3.125-.047 2.84 2.84 0 0 1-1.073-3.078Zm8.302 7.744C8.028 9.25 6.63 8.13 5.137 7.244c.232-.093.512-.233.745-.373a3.674 3.674 0 0 0 1.446-1.82c.887 1.493 2.006 2.893 3.405 4.292l1.602 1.602-1.256 1.402-1.652-1.651ZM3.224 26.74c-.373.373-.98.42-1.353.047l-.653-.607a.921.921 0 0 1-.28-.653c0-.28.094-.513.327-.746l.264-.296.669.669c.093.093.186.14.326.14s.233-.047.327-.14a.45.45 0 0 0 0-.653l-.706-.705.617-.69.742.742c.093.093.186.14.326.14s.233-.047.327-.14a.451.451 0 0 0 0-.653l-.779-.779L15.376 8.994l1.959 1.96-1.925 2.153a.477.477 0 0 0-.152.107l-1.866 2.1a.478.478 0 0 0-.114.178L3.224 26.74Zm11.195-11.1 1.276-1.43 3.014 3.015c.84.886 2.286 2.005 4.385 3.405a3.53 3.53 0 0 0-.84.42c-.578.361-.988.863-1.274 1.418l-.012.024a4.271 4.271 0 0 0-.206.47c-.265-.389-.52-.756-.765-1.101l.625-.625a.451.451 0 0 0 0-.653.45.45 0 0 0-.653 0l-.52.52a39.5 39.5 0 0 0-.562-.744l.429-.43a.451.451 0 0 0 0-.652.451.451 0 0 0-.653 0l-.356.356a15.494 15.494 0 0 0-.95-1.056l-2.938-2.938Zm12.5 9.327-.98-1.679c-.093-.14-.233-.233-.373-.233h-.233c-1.073-.093-2.053.513-2.519 1.446l-.093.233a.35.35 0 0 0 0 .42l1.026 1.772a2.756 2.756 0 0 1-1.493-.793c-.472-.51-.777-1.154-.805-1.847a.484.484 0 0 0 .012-.111 2.804 2.804 0 0 1 1.26-2.333c.466-.326.98-.466 1.539-.466.56 0 1.12.187 1.586.513.98.7 1.4 1.959 1.073 3.078Z" fill="#E3B873"/>
</svg>
